<?xml version="1.0" encoding="UTF-8" standalone="no"?>
<!DOCTYPE svg PUBLIC "-//W3C//DTD SVG 1.1//EN"
 "http://www.w3.org/Graphics/SVG/1.1/DTD/svg11.dtd">
<!-- Generated by graphviz version 14.1.5 (20260411.2331)
 -->
<!-- Title: G Pages: 1 -->
<svg width="1031pt" height="233pt"
 viewBox="0.00 0.00 1031.00 233.00" xmlns="http://www.w3.org/2000/svg" xmlns:xlink="http://www.w3.org/1999/xlink">
<g id="graph0" class="graph" transform="scale(1 1) rotate(0) translate(4 228.5)">
<title>G</title>
<polygon fill="white" stroke="none" points="-4,4 -4,-228.5 1027,-228.5 1027,4 -4,4"/>
<g id="clust1" class="cluster">
<title>cluster_G</title>
<path fill="#808080" fill-opacity="0.094118" stroke="black" d="M20,-8C20,-8 1003,-8 1003,-8 1009,-8 1015,-14 1015,-20 1015,-20 1015,-204.5 1015,-204.5 1015,-210.5 1009,-216.5 1003,-216.5 1003,-216.5 20,-216.5 20,-216.5 14,-216.5 8,-210.5 8,-204.5 8,-204.5 8,-20 8,-20 8,-14 14,-8 20,-8"/>
</g>
<g id="clust2" class="cluster">
<title>cluster_chat_client_with_tools</title>
<path fill="#808080" fill-opacity="0.094118" stroke="black" d="M28,-16C28,-16 995,-16 995,-16 1001,-16 1007,-22 1007,-28 1007,-28 1007,-152.5 1007,-152.5 1007,-158.5 1001,-164.5 995,-164.5 995,-164.5 28,-164.5 28,-164.5 22,-164.5 16,-158.5 16,-152.5 16,-152.5 16,-28 16,-28 16,-22 22,-16 28,-16"/>
<text xml:space="preserve" text-anchor="middle" x="511.5" y="-147.2" font-family="Times New Roman,serif" font-size="14.00">chat_client_with_tools</text>
</g>
<!-- chat_client_with_tools -->
<g id="node1" class="node">
<title>chat_client_with_tools</title>
<ellipse fill="#ffffff" fill-opacity="0.698039" stroke="black" cx="537" cy="-190.5" rx="94.86" ry="18"/>
<text xml:space="preserve" text-anchor="middle" x="537" y="-185.45" font-family="Times New Roman,serif" font-size="14.00" fill="#000000">chat_client_with_tools</text>
</g>
<!-- chat_client_with_tools__main -->
<g id="node8" class="node">
<title>chat_client_with_tools__main</title>
<ellipse fill="#ffffff" fill-opacity="0.698039" stroke="black" cx="537" cy="-114" rx="29.86" ry="18"/>
<text xml:space="preserve" text-anchor="middle" x="537" y="-108.95" font-family="Times New Roman,serif" font-size="14.00" fill="#000000">main</text>
</g>
<!-- chat_client_with_tools&#45;&gt;chat_client_with_tools__main -->
<g id="edge1" class="edge">
<title>chat_client_with_tools&#45;&gt;chat_client_with_tools__main</title>
<path fill="none" stroke="#000000" d="M537,-172.22C537,-163.82 537,-153.49 537,-143.93"/>
<polygon fill="#000000" stroke="#000000" points="540.5,-143.96 537,-133.96 533.5,-143.96 540.5,-143.96"/>
</g>
<!-- chat_client_with_tools__call_llm_stream -->
<g id="node2" class="node">
<title>chat_client_with_tools__call_llm_stream</title>
<ellipse fill="#ffffff" fill-opacity="0.698039" stroke="black" cx="95" cy="-42" rx="71.31" ry="18"/>
<text xml:space="preserve" text-anchor="middle" x="95" y="-36.95" font-family="Times New Roman,serif" font-size="14.00" fill="#000000">call_llm_stream</text>
</g>
<!-- chat_client_with_tools__create_file -->
<g id="node3" class="node">
<title>chat_client_with_tools__create_file</title>
<ellipse fill="#ffffff" fill-opacity="0.698039" stroke="black" cx="234" cy="-42" rx="49.82" ry="18"/>
<text xml:space="preserve" text-anchor="middle" x="234" y="-36.95" font-family="Times New Roman,serif" font-size="14.00" fill="#000000">create_file</text>
</g>
<!-- chat_client_with_tools__curl_request -->
<g id="node4" class="node">
<title>chat_client_with_tools__curl_request</title>
<ellipse fill="#ffffff" fill-opacity="0.698039" stroke="black" cx="358" cy="-42" rx="56.47" ry="18"/>
<text xml:space="preserve" text-anchor="middle" x="358" y="-36.95" font-family="Times New Roman,serif" font-size="14.00" fill="#000000">curl_request</text>
</g>
<!-- chat_client_with_tools__delete_file -->
<g id="node5" class="node">
<title>chat_client_with_tools__delete_file</title>
<ellipse fill="#ffffff" fill-opacity="0.698039" stroke="black" cx="482" cy="-42" rx="49.82" ry="18"/>
<text xml:space="preserve" text-anchor="middle" x="482" y="-36.95" font-family="Times New Roman,serif" font-size="14.00" fill="#000000">delete_file</text>
</g>
<!-- chat_client_with_tools__list_files -->
<g id="node6" class="node">
<title>chat_client_with_tools__list_files</title>
<ellipse fill="#ffffff" fill-opacity="0.698039" stroke="black" cx="592" cy="-42" rx="42.65" ry="18"/>
<text xml:space="preserve" text-anchor="middle" x="592" y="-36.95" font-family="Times New Roman,serif" font-size="14.00" fill="#000000">list_files</text>
</g>
<!-- chat_client_with_tools__load_dotenv -->
<g id="node7" class="node">
<title>chat_client_with_tools__load_dotenv</title>
<ellipse fill="#ffffff" fill-opacity="0.698039" stroke="black" cx="709" cy="-42" rx="56.47" ry="18"/>
<text xml:space="preserve" text-anchor="middle" x="709" y="-36.95" font-family="Times New Roman,serif" font-size="14.00" fill="#000000">load_dotenv</text>
</g>
<!-- chat_client_with_tools__main&#45;&gt;chat_client_with_tools__call_llm_stream -->
<g id="edge7" class="edge">
<title>chat_client_with_tools__main&#45;&gt;chat_client_with_tools__call_llm_stream</title>
<path fill="none" stroke="#000000" d="M507.81,-109.37C446.14,-101.56 298.17,-82.08 175,-60 169.69,-59.05 164.19,-58 158.68,-56.92"/>
<polygon fill="#000000" stroke="#000000" points="159.38,-53.49 148.89,-54.94 158,-60.35 159.38,-53.49"/>
</g>
<!-- chat_client_with_tools__main&#45;&gt;chat_client_with_tools__create_file -->
<g id="edge3" class="edge">
<title>chat_client_with_tools__main&#45;&gt;chat_client_with_tools__create_file</title>
<path fill="none" stroke="#000000" d="M508.68,-107.49C463.05,-98.46 370.55,-79.57 293,-60 289.65,-59.15 286.19,-58.25 282.72,-57.31"/>
<polygon fill="#000000" stroke="#000000" points="283.7,-53.95 273.13,-54.66 281.83,-60.7 283.7,-53.95"/>
</g>
<!-- chat_client_with_tools__main&#45;&gt;chat_client_with_tools__curl_request -->
<g id="edge5" class="edge">
<title>chat_client_with_tools__main&#45;&gt;chat_client_with_tools__curl_request</title>
<path fill="none" stroke="#000000" d="M512.49,-103.41C484.37,-92.42 437.7,-74.17 402.99,-60.6"/>
<polygon fill="#000000" stroke="#000000" points="404.64,-57.48 394.05,-57.1 402.09,-64 404.64,-57.48"/>
</g>
<!-- chat_client_with_tools__main&#45;&gt;chat_client_with_tools__delete_file -->
<g id="edge2" class="edge">
<title>chat_client_with_tools__main&#45;&gt;chat_client_with_tools__delete_file</title>
<path fill="none" stroke="#000000" d="M524.79,-97.46C518.08,-88.92 509.58,-78.1 501.93,-68.36"/>
<polygon fill="#000000" stroke="#000000" points="504.8,-66.36 495.87,-60.66 499.3,-70.68 504.8,-66.36"/>
</g>
<!-- chat_client_with_tools__main&#45;&gt;chat_client_with_tools__list_files -->
<g id="edge8" class="edge">
<title>chat_client_with_tools__main&#45;&gt;chat_client_with_tools__list_files</title>
<path fill="none" stroke="#000000" d="M549.21,-97.46C555.92,-88.92 564.42,-78.1 572.07,-68.36"/>
<polygon fill="#000000" stroke="#000000" points="574.7,-70.68 578.13,-60.66 569.2,-66.36 574.7,-70.68"/>
</g>
<!-- chat_client_with_tools__main&#45;&gt;chat_client_with_tools__load_dotenv -->
<g id="edge6" class="edge">
<title>chat_client_with_tools__main&#45;&gt;chat_client_with_tools__load_dotenv</title>
<path fill="none" stroke="#000000" d="M561.28,-103.12C588.1,-92.2 631.85,-74.4 664.79,-60.99"/>
<polygon fill="#000000" stroke="#000000" points="665.73,-64.39 673.67,-57.38 663.09,-57.9 665.73,-64.39"/>
</g>
<!-- chat_client_with_tools__read_file -->
<g id="node9" class="node">
<title>chat_client_with_tools__read_file</title>
<ellipse fill="#ffffff" fill-opacity="0.698039" stroke="black" cx="827" cy="-42" rx="43.67" ry="18"/>
<text xml:space="preserve" text-anchor="middle" x="827" y="-36.95" font-family="Times New Roman,serif" font-size="14.00" fill="#000000">read_file</text>
</g>
<!-- chat_client_with_tools__main&#45;&gt;chat_client_with_tools__read_file -->
<g id="edge4" class="edge">
<title>chat_client_with_tools__main&#45;&gt;chat_client_with_tools__read_file</title>
<path fill="none" stroke="#000000" d="M565.29,-107.53C609.94,-98.72 699.34,-80.28 774,-60 776.92,-59.21 779.91,-58.36 782.92,-57.47"/>
<polygon fill="#000000" stroke="#000000" points="783.78,-60.87 792.33,-54.6 781.74,-54.17 783.78,-60.87"/>
</g>
<!-- chat_client_with_tools__rename_file -->
<g id="node10" class="node">
<title>chat_client_with_tools__rename_file</title>
<ellipse fill="#ffffff" fill-opacity="0.698039" stroke="black" cx="944" cy="-42" rx="55.45" ry="18"/>
<text xml:space="preserve" text-anchor="middle" x="944" y="-36.95" font-family="Times New Roman,serif" font-size="14.00" fill="#000000">rename_file</text>
</g>
<!-- chat_client_with_tools__main&#45;&gt;chat_client_with_tools__rename_file -->
<g id="edge9" class="edge">
<title>chat_client_with_tools__main&#45;&gt;chat_client_with_tools__rename_file</title>
<path fill="none" stroke="#000000" d="M566.1,-109.57C625.47,-102.32 764.7,-84.15 880,-60 884.01,-59.16 888.13,-58.23 892.27,-57.24"/>
<polygon fill="#000000" stroke="#000000" points="892.85,-60.7 901.72,-54.9 891.17,-53.91 892.85,-60.7"/>
</g>
</g>
</svg>
